<svg viewBox="0 0 110 110" xmlns="http://www.w3.org/2000/svg">
<rect x="0" y="0" width="110" height="110" fill="#282828"/>
<defs>
<pattern id="grid" width="10" height="10" patternUnits="userSpaceOnUse">
<path d="M 10 0 L 0 0 0 10" fill="none" stroke="#3c3836" stroke-width="1" stroke-opacity="1"/>
</pattern>
</defs>
<rect width="110" height="110" fill="url(#grid)" />
<line x1="10" y1="100" x2="100" y2="100" stroke="#ebdbb2" stroke-width="1" />
<line x1="10" y1="100" x2="10" y2="10" stroke="#ebdbb2" stroke-width="1" />
<path d="M 10 60 L 11 56.00666333412688 L 12 52.053226768197554 L 13 48.17919173354642 L 14 44.423266307653975 L 15 40.82297845583188 L 16 37.41430106419858 L 17 34.23129251049235 L 18 31.30575636401909 L 19 28.666923614900668 L 20 26.341160607684145 L 21 24.351705597542576 L 22 22.718436561310938 L 23 21.457672583312274 L 24 20.58201080046159 L 25 20.100200535837814 L 26 20.01705587833979 L 27 20.333407581901255 L 28 21.046094764872194 L 29 22.147996492503424 L 30 23.62810292697273 L 31 25.471625334045058 L 32 27.660143847216403 L 33 30.171791512931208 L 34 32.98147277795397 L 35 36.06111423584174 L 36 39.37994512714143 L 37 42.90480479064681 L 38 46.60047399376381 L 39 50.43002683144072 L 40 54.35519967760531 L 41 58.33677350266838 L 42 62.334965737103204 L 43 66.30982776572995 L 44 70.22164408107326 L 45 74.0313291075848 L 46 77.7008177317941 L 47 81.19344563633973 L 48 84.47431563770877 L 49 87.51064636735896 L 50 90.27209981231712 L 51 92.73108444257643 L 52 94.86303089654353 L 53 96.6466374699782 L 54 98.06408295558063 L 55 99.10120470660388 L 56 99.74764014533858 L 57 99.99693030256404 L 58 99.84658435343363 L 59 99.2981045049733 L 60 98.35697098652554 L 61 97.03258729310929 L 62 95.33818622880612 L 63 93.29069768895603 L 64 90.91057950223949 L 65 88.22161302281567 L 66 85.25066551489283 L 67 82.0274217039055 L 68 78.58408717655027 L 69 74.95506659320944 L 70 71.17661992795703 L 71 67.2865001708838 L 72 63.323576112699854 L 73 59.32744398062598 L 74 55.33803180598025 L 75 51.395200476487375 L 76 47.53834545946485 L 77 43.806003175336066 L 78 40.23546595445564 L 79 36.86240942447199 L 80 33.720536051248445 L 81 30.841238394964932 L 82 28.25328544603387 L 83 25.982535174857404 L 84 24.05167616753492 L 85 22.480000929010444 L 86 21.283213118740548 L 87 20.473270644919978 L 88 20.05826618501581 L 89 20.042346326409117 L 90 20.425670135064735 L 91 21.20440756619655 L 92 22.370777732809103 L 93 23.91312664974828 L 94 25.81604367646878 L 95 28.060515495060386 L 96 30.624116085035467 L 97 33.48123079671272 L 98 36.60331228432953 L 99 39.959165741684615 L 100 43.51526059032973 L 101 47.236065506025916 L 102 51.08440343599016 L 103 55.02182305971753 L 104 59.00898298186569 L 105 63.006044818472375 L 106 66.97307124891925 L 107 70.87042505643777 L 108 74.65916517007713 L 109 78.30143575101286 " stroke="#fabd2f" fill="none" />
</svg>
